<?xml version="1.0" encoding="UTF-8" standalone="no"?>
<svg width="174.96233mm" height="108.87349mm" viewBox="0 0 174.96233 108.87349" version="1.1" id="svg1" xml:space="preserve" xmlns:inkscape="http://www.inkscape.org/namespaces/inkscape" xmlns:sodipodi="http://sodipodi.sourceforge.net/DTD/sodipodi-0.dtd" xmlns="http://www.w3.org/2000/svg" xmlns:svg="http://www.w3.org/2000/svg"><g inkscape:label="Layer 1" inkscape:groupmode="layer" id="layer1" transform="translate(-20.617424,-64.766625)"><g transform="matrix(0.02868235,0,0,-0.02887891,20.043777,174.21769)" fill="#000000" stroke="none" id="g3" style="fill:#003185;fill-opacity:1"><path d="M 20,1905 V 20 H 1800 3580 V 1275 2530 H 3075 2570 V 1745 960 H 1805 1040 V 2375 3790 H 530 20 Z" id="path1" style="fill:#003185;fill-opacity:1" /><path d="m 1292,2533 3,-1258 508,-3 507,-2 v 790 790 l 763,-2 762,-3 3,-1412 2,-1413 H 4980 6120 V 1275 2530 H 5615 5110 V 1745 960 H 4980 4850 V 2375 3790 H 3070 1290 Z" id="path2" style="fill:#003185;fill-opacity:1" /><path d="m 5110,3320 v -470 h 505 505 v 470 470 h -505 -505 z" id="path3" style="fill:#003185;fill-opacity:1" /></g></g></svg>